#define bucket_width 28
#define bucket_height 28
static unsigned char bucket_bits[] = {
   0x00, 0x00, 0x00, 0x00, 0x00, 0x00, 0x00, 0x00, 0x00, 0x00, 0x00, 0x00,
   0x00, 0x00, 0x00, 0x00, 0x00, 0x00, 0x00, 0x00, 0x00, 0x00, 0x00, 0x00,
   0x00, 0x70, 0x00, 0x00, 0x00, 0x88, 0x00, 0x00, 0x00, 0xc8, 0x00, 0x00,
   0x00, 0xa8, 0x01, 0x00, 0x00, 0x98, 0x06, 0x00, 0x00, 0x88, 0x1c, 0x00,
   0x00, 0x84, 0x38, 0x00, 0x00, 0x42, 0x71, 0x00, 0x00, 0x81, 0x70, 0x00,
   0x80, 0x00, 0x78, 0x00, 0x80, 0x00, 0x74, 0x00, 0x00, 0x01, 0x72, 0x00,
   0x00, 0x02, 0x71, 0x00, 0x00, 0x84, 0x70, 0x00, 0x00, 0x48, 0x30, 0x00,
   0x00, 0x30, 0x10, 0x00, 0x00, 0x00, 0x00, 0x00, 0x00, 0x00, 0x00, 0x00,
   0x00, 0x00, 0x00, 0x00, 0x00, 0x00, 0x00, 0x00, 0x00, 0x00, 0x00, 0x00,
   0x00, 0x00, 0x00, 0x00 };
