#define button_width 32
#define button_height 32
static unsigned char button_bits[] = {
   0x00, 0x00, 0x00, 0x00, 0x00, 0x00, 0x00, 0x00, 0x00, 0x00, 0x00, 0x00,
   0x00, 0x00, 0x00, 0x00, 0x00, 0x00, 0x00, 0x00, 0x00, 0x00, 0x00, 0x00,
   0x00, 0x00, 0x00, 0x00, 0x00, 0x00, 0x00, 0x00, 0x00, 0x00, 0x00, 0x00,
   0x00, 0x00, 0x0f, 0x00, 0x00, 0x00, 0x11, 0x00, 0x00, 0x80, 0x10, 0x00,
   0x00, 0x80, 0x09, 0x00, 0x00, 0x40, 0x0e, 0x00, 0x00, 0x40, 0x04, 0x00,
   0x00, 0x20, 0x04, 0x00, 0x00, 0x20, 0x02, 0x00, 0x00, 0x10, 0x02, 0x00,
   0x00, 0x10, 0x01, 0x00, 0x00, 0x08, 0x01, 0x00, 0x00, 0x88, 0x00, 0x00,
   0x00, 0x78, 0x00, 0x00, 0x00, 0x38, 0x00, 0x00, 0x00, 0x18, 0x00, 0x00,
   0x00, 0x08, 0x00, 0x00, 0x00, 0x00, 0x00, 0x00, 0x00, 0x00, 0x00, 0x00,
   0x00, 0x00, 0x00, 0x00, 0x00, 0x00, 0x00, 0x00, 0x00, 0x00, 0x00, 0x00,
   0x00, 0x00, 0x00, 0x00, 0x00, 0x00, 0x00, 0x00 };
