#define eraser_width 28
#define eraser_height 28
static unsigned char eraser_bits[] = {
   0x00, 0x00, 0x00, 0x00, 0x00, 0x00, 0x00, 0x00, 0x00, 0x00, 0x00, 0x00,
   0x00, 0x00, 0x00, 0x00, 0x00, 0x00, 0x00, 0x00, 0x00, 0x00, 0x00, 0x00,
   0x00, 0x00, 0x00, 0x00, 0x00, 0x00, 0x00, 0x00, 0x00, 0x80, 0x3f, 0x00,
   0x00, 0x40, 0x20, 0x00, 0x00, 0x20, 0x70, 0x00, 0x00, 0x10, 0x68, 0x00,
   0x00, 0x08, 0x34, 0x00, 0x00, 0x04, 0x1a, 0x00, 0x00, 0x02, 0x0d, 0x00,
   0x00, 0x81, 0x06, 0x00, 0x80, 0x7f, 0x03, 0x00, 0x80, 0xc0, 0x01, 0x00,
   0x80, 0xc0, 0x00, 0x00, 0x80, 0x7f, 0x00, 0x00, 0x00, 0x00, 0x00, 0x00,
   0x00, 0x00, 0x00, 0x00, 0x00, 0x00, 0x00, 0x00, 0x00, 0x00, 0x00, 0x00,
   0x00, 0x00, 0x00, 0x00, 0x00, 0x00, 0x00, 0x00, 0x00, 0x00, 0x00, 0x00,
   0x00, 0x00, 0x00, 0x00 };
