#define pencil_width 28
#define pencil_height 28
static unsigned char pencil_bits[] = {
   0x00, 0x00, 0x00, 0x00, 0x00, 0x00, 0x00, 0x00, 0x00, 0x00, 0x00, 0x00,
   0x00, 0x00, 0x00, 0x00, 0x00, 0x00, 0x00, 0x00, 0x00, 0x00, 0x00, 0x00,
   0x00, 0x00, 0x00, 0x00, 0x00, 0xc0, 0x03, 0x00, 0x00, 0x40, 0x04, 0x00,
   0x00, 0x20, 0x04, 0x00, 0x00, 0x60, 0x02, 0x00, 0x00, 0x90, 0x03, 0x00,
   0x00, 0x10, 0x01, 0x00, 0x00, 0x08, 0x01, 0x00, 0x00, 0x88, 0x00, 0x00,
   0x00, 0x84, 0x00, 0x00, 0x00, 0x44, 0x00, 0x00, 0x00, 0x42, 0x00, 0x00,
   0x00, 0x22, 0x00, 0x00, 0x00, 0x1e, 0x00, 0x00, 0x00, 0x0e, 0x00, 0x00,
   0x00, 0x06, 0x00, 0x00, 0x00, 0x02, 0x00, 0x00, 0x00, 0x00, 0x00, 0x00,
   0x00, 0x00, 0x00, 0x00, 0x00, 0x00, 0x00, 0x00, 0x00, 0x00, 0x00, 0x00,
   0x00, 0x00, 0x00, 0x00 };
